<svg class="diagram-root" style="background: #f5f6f6" xmlns="http://www.w3.org/2000/svg" xmlns:xlink="http://www.w3.org/1999/xlink"><style>.diagram-root { font-family: "Helvetica Neue", sans-serif; font-size: 12px; } .t { overflow: visible; } .t-bg { y: 40; fill: #fff;   } .th { fill: #005aa0;   } .tht { fill: #fff; font-size: 14px;  } .tf { fill: #323c46; overflow: visible; } .tf.pk { fill: #005aa0; font-weight: bold; } .tf.fk { font-weight: bold; } .ty { fill: #adb1b5; font-weight: normal; text-anchor: end; } .r { fill: transparent; stroke: #c3c3c3; stroke-width: 1; } .l { stroke: 1; } .i { fill: #c2c7ce; stroke: #c2c7ce; } .i.ix { fill: #afb3b6; stroke: #000; } .fa { fill: transparent; overflow: visible; } .fa .bg.hover { fill: #f7f7f7; } .c { cy: 12; r: 4; stroke: #d2d2dc; fill: #d2d2dc; } .hr { fill: transparent; stroke: #323c46; stroke-opacity: 0.035; stroke-width: 13; } .dc { stroke: #fa5a3c; fill: #fa5a3c; } .x { stroke: white; stroke-width: 1; } .hl .th { fill: #1b9bff; } .hl .tht {  } .fhl .bg { fill: #e7f4ff; } .fhls .bg {  } .r.hl { stroke: #1b9bff; } .dim { opacity: 0.25; }</style><g class="drawing-wrapper" transform="translate(-414, -49) scale(1,1)"><g class="rs"><path d="M 568.7 136 m -1, 0 a 1,1 0 1,0 2,0 a 1,1 0 1,0 -2,0 M 568.7 136 m -0.5, 0 a 0.5,0.5 0 1,0 1,0 a 0.5,0.5 0 1,0 -1,0  M568.7 136 L568.7 136 580.7 136 M 568.7 142 m -1, 0 a 1,1 0 1,0 2,0 a 1,1 0 1,0 -2,0 M 568.7 142 m -0.5, 0 a 0.5,0.5 0 1,0 1,0 a 0.5,0.5 0 1,0 -1,0  M568.7 142 L568.7 142 575.7 136 568.7 130 M 568.7 130 m -1, 0 a 1,1 0 1,0 2,0 a 1,1 0 1,0 -2,0 M 568.7 130 m -0.5, 0 a 0.5,0.5 0 1,0 1,0 a 0.5,0.5 0 1,0 -1,0  M580.7 136 Q 598.53 136, 616.35 212 T 652 288 M 664 288 m -1, 0 a 1,1 0 1,0 2,0 a 1,1 0 1,0 -2,0 M 664 288 m -0.5, 0 a 0.5,0.5 0 1,0 1,0 a 0.5,0.5 0 1,0 -1,0  M664 288 L664 288 652 288 M658 294 L658 294 658 282" id="h2303402316" class="r"></path><path d="M 874 145 m -1, 0 a 1,1 0 1,0 2,0 a 1,1 0 1,0 -2,0 M 874 145 m -0.5, 0 a 0.5,0.5 0 1,0 1,0 a 0.5,0.5 0 1,0 -1,0  M874 145 L874 145 862 145 M 874 151 m -1, 0 a 1,1 0 1,0 2,0 a 1,1 0 1,0 -2,0 M 874 151 m -0.5, 0 a 0.5,0.5 0 1,0 1,0 a 0.5,0.5 0 1,0 -1,0  M874 151 L874 151 867 145 874 139 M 874 139 m -1, 0 a 1,1 0 1,0 2,0 a 1,1 0 1,0 -2,0 M 874 139 m -0.5, 0 a 0.5,0.5 0 1,0 1,0 a 0.5,0.5 0 1,0 -1,0  M862 145 Q 846.7 145, 831.4 229 T 800.8 313 M 788.8 313 m -1, 0 a 1,1 0 1,0 2,0 a 1,1 0 1,0 -2,0 M 788.8 313 m -0.5, 0 a 0.5,0.5 0 1,0 1,0 a 0.5,0.5 0 1,0 -1,0  M788.8 313 L788.8 313 800.8 313 M794.8 319 L794.8 319 794.8 307" id="h4048550865" class="r"></path></g><g class="hrs"></g><g class="ts"><svg width="124.8" height="100" x="664" y="231" id="h2209344307" class="t"><rect height="40" width="124.8" class="th"></rect><text x="13" y="25" class="tht">UsersBreweries</text><rect height="60" width="124.8" class="t-bg"></rect><text x="13" y="61" class="tf pk">user_id<tspan x="111.8" class="ty">int</tspan></text><path d="M7,14A2,2 0 0,1 5,12A2,2 0 0,1 7,10A2,2 0 0,1 9,12A2,2 0 0,1 7,14M12.65,10C11.83,7.67 9.61,6 7, 6A6, 6 0 0, 0 1, 12A6, 6 0 0, 0 7, 18C9.61, 18 11.83, 16.33 12.65, 14H17V18H21V14H23V10H12.65Z" class="i pk" transform="translate(79.126171875, 48) scale(0.65)"></path><text x="13" y="86" class="tf fk">brewery_id<tspan x="111.8" class="ty">int</tspan></text></svg><svg width="132.7" height="225" x="436" y="79" id="h3889921393" class="t"><rect height="40" width="132.7" class="th"></rect><text x="13" y="25" class="tht">Users</text><rect height="185" width="132.7" class="t-bg"></rect><text x="13" y="61" class="tf pk">id<tspan x="119.69999999999999" class="ty">int</tspan></text><path d="M7,14A2,2 0 0,1 5,12A2,2 0 0,1 7,10A2,2 0 0,1 9,12A2,2 0 0,1 7,14M12.65,10C11.83,7.67 9.61,6 7, 6A6, 6 0 0, 0 1, 12A6, 6 0 0, 0 7, 18C9.61, 18 11.83, 16.33 12.65, 14H17V18H21V14H23V10H12.65Z" class="i pk" transform="translate(87.02617187499999, 48) scale(0.65)"></path><text x="13" y="86" class="tf">username<tspan x="119.69999999999999" class="ty">string</tspan></text><text x="13" y="111" class="tf">first_name<tspan x="119.69999999999999" class="ty">string</tspan></text><text x="13" y="136" class="tf">last_Name<tspan x="119.69999999999999" class="ty">string</tspan></text><text x="13" y="161" class="tf">email<tspan x="119.69999999999999" class="ty">string</tspan></text><text x="13" y="186" class="tf">password<tspan x="119.69999999999999" class="ty">string</tspan></text><text x="13" y="211" class="tf">location<tspan x="119.69999999999999" class="ty">string</tspan></text></svg><svg width="116.71" height="125" x="874" y="88" id="h923126935" class="t"><rect height="40" width="116.71" class="th"></rect><text x="13" y="25" class="tht">Breweries</text><rect height="85" width="116.71" class="t-bg"></rect><text x="13" y="61" class="tf pk">id<tspan x="103.71" class="ty">int</tspan></text><path d="M7,14A2,2 0 0,1 5,12A2,2 0 0,1 7,10A2,2 0 0,1 9,12A2,2 0 0,1 7,14M12.65,10C11.83,7.67 9.61,6 7, 6A6, 6 0 0, 0 1, 12A6, 6 0 0, 0 7, 18C9.61, 18 11.83, 16.33 12.65, 14H17V18H21V14H23V10H12.65Z" class="i pk" transform="translate(71.036171875, 48) scale(0.65)"></path><text x="13" y="86" class="tf">name<tspan x="103.71" class="ty">strig</tspan></text><text x="13" y="111" class="tf">location<tspan x="103.71" class="ty">string</tspan></text></svg></g></g><text class="qdbd-link" x="10" y="20">www.quickdatabasediagrams.com</text></svg>